/* XPM */
const static char * saspanels_32x32_xpm[] = {
"32 32 5 1",
" 	c None",
".	c #FF0000",
"+	c #FFFF00",
"@	c #FFFFFF",
"#	c #808000",
"                                ",
"                                ",
"     .     +++++                ",
"     .    ++   ++               ",
"     .    ++   ++               ",
"     .    ++                    ",
"    ...    +++                  ",
"    . .      +++                ",
"    @ @        ++               ",
"    @ @   ++   ++               ",
"    @@@   ++   ++               ",
"    @@@    +++++   ++           ",
"    @ @            ++           ",
"    @ @           ++++          ",
"   .. ..          ++++          ",
"   .. ..          +  +          ",
"   ..#..         ++  ++         ",
"   . . .         ++  ++         ",
"   .. ..         ++++++         ",
"   .. ..        ++    ++        ",
"  @@   @@       ++    ++        ",
"  @ @ @ @                       ",
"  @  @  @                +++++  ",
"  @  @  @               ++   ++ ",
"  @ @ @ @               ++   ++ ",
"  @@   @@               ++      ",
" ..     ..               +++    ",
" . .. .. .                 +++  ",
" .   .   .                   ++ ",
".    .    .             ++   ++ ",
".  .. ..  .             ++   ++ ",
"...     ...              +++++  "};
