/* XPM */
const static char * saspanels_22x22_xpm[] = {
"22 22 15 1",
" 	c None",
".	c #FFFF00",
"+	c #FF0000",
"@	c #FF7F7F",
"#	c #FFFFFF",
"$	c #FF4E4E",
"%	c #FF9191",
"&	c #C63900",
"*	c #F10E00",
"=	c #FF3636",
"-	c #FF1111",
";	c #FF6666",
">	c #FFD0D0",
",	c #FFFCFC",
"'	c #FFECEC",
"                      ",
"        ...           ",
"   +   .  ..          ",
"   +   .              ",
"   ++   ..            ",
"    @    ..           ",
"   ##  .  ..          ",
"   ##  .. .           ",
"   ##        .        ",
"  $ %       ...       ",
"  + ++      . .       ",
"  +&*+      . ..      ",
"  + ++      ....      ",
"  = -;     .   .      ",
" ##  #                ",
" # # #           .... ",
" # # #          ..  . ",
" >,  '           .    ",
" +   ++           ..  ",
"   +  +             . ",
"+  +   +        ..  . ",
"++   +++         .... "};
