/* XPM */
const static char * saspanels_16x16_xpm[] = {
"16 16 5 1",
" 	c None",
".	c #FF0000",
"+	c #FFFF00",
"@	c #FFFFFF",
"#	c #D52B00",
"                ",
"  .  +++        ",
"  .  +          ",
"  ..  ++        ",
"  @@ + ++       ",
"  @@ +++        ",
"  @@     ++     ",
" ...     ++     ",
" .#.    ++++    ",
" ...    ++++    ",
" @ @@   +  +    ",
" @@ @       +++ ",
" @ @@       +   ",
".. ..        ++ ",
". .         + ++",
".. ...      +++ "};
