/* XPM */
const static char * saspanels_48x48_xpm[] = {
"48 48 17 1",
" 	c None",
".	c #FFFF00",
"+	c #FF0000",
"@	c #FF8080",
"#	c #FFFFFF",
"$	c #FF5555",
"%	c #FF7474",
"&	c #FF2424",
"*	c #F30C00",
"=	c #A45B00",
"-	c #D52B00",
";	c #EB1500",
">	c #C53A00",
",	c #ED1200",
"'	c #FFDBDB",
")	c #FF8B8B",
"!	c #FFAAAA",
"                                                ",
"                                                ",
"                                                ",
"                  ......                        ",
"        ++       ........                       ",
"        ++      ...    ...                      ",
"        ++     ....    ...                      ",
"        ++     ....    ...                      ",
"        ++     ....                             ",
"       +++      .....                           ",
"      +++++      .....                          ",
"      ++ ++         ....                        ",
"      @@ @@          ....                       ",
"      ## ##            ...                      ",
"      ## ##     ..     ...                      ",
"      #####    ....    ...                      ",
"      #####     ...    ...                      ",
"      #####      ........    ...                ",
"      #####       ......     ...                ",
"      ## ##                  ...                ",
"      ## ##                 .....               ",
"      $@ @%&               .......              ",
"     +++ ++++              .......              ",
"     +++ ++++              ..   ..              ",
"     ++*=-+++              ..   ..              ",
"     ++;=>+++             ...   ...             ",
"     ++ ;, ++             ...   ...             ",
"     ++++++++             .........             ",
"     +++ ++++             .........             ",
"     +++ ++++            ...     ...            ",
"    ')$   &%!           ....     ....           ",
"   ####    ###           ..       ..            ",
"   ## ##  # ##                                  ",
"   ##  ###  ##                         ......   ",
"   ##   ##  ##                        ........  ",
"   ##   ##  ##                       ...    ... ",
"   ##  ###  ##                      ....    ... ",
"   ## ##  # ##                      ....    ... ",
"   ####    ###                      ....        ",
"   $)'      !%&                      .....      ",
"  +++       ++++                      .....     ",
"  ++ +++  +++ ++                         ....   ",
"  ++  ++++++  ++                          ....  ",
"  +     ++    ++                            ... ",
"++      ++     ++                    ..     ... ",
"++    ++++++   ++                   ....    ... ",
"++   +++  +++  ++                    ...    ... ",
"+++++       +++++                     ........  "};
